<?xml version="1.0" encoding="UTF-8" standalone="no"?>
<!-- Generator: Adobe Illustrator 19.0.0, SVG Export Plug-In . SVG Version: 6.00 Build 0)  -->

<svg
   xmlns:dc="http://purl.org/dc/elements/1.1/"
   xmlns:cc="http://creativecommons.org/ns#"
   xmlns:rdf="http://www.w3.org/1999/02/22-rdf-syntax-ns#"
   xmlns:svg="http://www.w3.org/2000/svg"
   xmlns="http://www.w3.org/2000/svg"
   xmlns:sodipodi="http://sodipodi.sourceforge.net/DTD/sodipodi-0.dtd"
   xmlns:inkscape="http://www.inkscape.org/namespaces/inkscape"
   version="1.1"
   id="Layer_1"
   x="0px"
   y="0px"
   viewBox="0 0 512 512"
   style="enable-background:new 0 0 512 512;"
   xml:space="preserve"
   inkscape:version="0.91 r13725"
   sodipodi:docname="youtube-svgrepo-com.svg"><metadata
     id="metadata39"><rdf:RDF><cc:Work
         rdf:about=""><dc:format>image/svg+xml</dc:format><dc:type
           rdf:resource="http://purl.org/dc/dcmitype/StillImage" /><dc:title></dc:title></cc:Work></rdf:RDF></metadata><defs
     id="defs37" /><sodipodi:namedview
     pagecolor="#ffffff"
     bordercolor="#666666"
     borderopacity="1"
     objecttolerance="10"
     gridtolerance="10"
     guidetolerance="10"
     inkscape:pageopacity="0"
     inkscape:pageshadow="2"
     inkscape:window-width="1481"
     inkscape:window-height="783"
     id="namedview35"
     showgrid="false"
     inkscape:zoom="0.4609375"
     inkscape:cx="256"
     inkscape:cy="256"
     inkscape:window-x="0"
     inkscape:window-y="0"
     inkscape:window-maximized="0"
     inkscape:current-layer="Layer_1" /><g
     id="g4173"
     transform="translate(0,48)"><path
       id="path4171"
       d="M 492.044,106.769 C 473.562,84.799 439.44,75.838 374.274,75.838 l -236.553,0 c -66.657,0 -101.358,9.54 -119.77,32.93 C 0,131.572 0,165.174 0,211.681 l 0,88.64 c 0,90.097 21.299,135.842 137.721,135.842 l 236.554,0 c 56.512,0 87.826,-7.908 108.085,-27.296 C 503.136,388.985 512,356.522 512,300.321 l 0,-88.64 c 0,-49.045 -1.389,-82.845 -19.956,-104.912 z"
       style="fill:#d7143a"
       inkscape:connector-curvature="0" /><path
       id="path3"
       d="m 328.706,268.238 -107.418,56.14 c -2.401,1.255 -5.028,1.878 -7.65,1.878 -2.97,0 -5.933,-0.799 -8.557,-2.388 -4.942,-2.994 -7.959,-8.351 -7.959,-14.128 l 0,-111.92 c 0,-5.767 3.009,-11.119 7.941,-14.115 4.933,-2.996 11.069,-3.201 16.187,-0.542 l 107.418,55.778 c 5.465,2.837 8.897,8.479 8.905,14.635 0.007,6.162 -3.41,11.812 -8.867,14.662 z"
       style="fill:#ffffff"
       inkscape:connector-curvature="0" /></g><g
     id="g5" /><g
     id="g7" /><g
     id="g9" /><g
     id="g11" /><g
     id="g13" /><g
     id="g15" /><g
     id="g17" /><g
     id="g19" /><g
     id="g21" /><g
     id="g23" /><g
     id="g25" /><g
     id="g27" /><g
     id="g29" /><g
     id="g31" /><g
     id="g33" /></svg>